<?xml version="1.0" encoding="iso-8859-1"?>
<!-- Generator: Adobe Illustrator 19.0.0, SVG Export Plug-In . SVG Version: 6.00 Build 0)  -->
<svg version="1.1" id="Layer_1" xmlns="http://www.w3.org/2000/svg" xmlns:xlink="http://www.w3.org/1999/xlink" x="0px" y="0px"
	 viewBox="0 0 512 512" style="enable-background:new 0 0 512 512;" xml:space="preserve">
<path style="fill:#9DE8F7;" d="M110.4,278.8v180c37.6-16,160.8-58.4,284-0.8V279.6L256,346L110.4,278.8z"/>
<path d="M256,328.4L94.4,254v229.6l11.2-5.6c1.6-0.8,151.2-73.6,292.8,0l12,6.4V254L256,328.4z M394.4,458
	c-123.2-57.6-246.4-15.2-284,0.8v-180L256,346l138.4-66.4V458z"/>
<polygon style="fill:#9DE8F7;" points="476,160.4 256,46 36,162.8 255.2,266 "/>
<path d="M256,27.6L0,163.6l255.2,120l194.4-92.8v141.6h16V183.6l46.4-22.4L256,27.6z M256,46l220,114.4L255.2,266L36,162.8L256,46z"
	/>
<g>
</g>
<g>
</g>
<g>
</g>
<g>
</g>
<g>
</g>
<g>
</g>
<g>
</g>
<g>
</g>
<g>
</g>
<g>
</g>
<g>
</g>
<g>
</g>
<g>
</g>
<g>
</g>
<g>
</g>
</svg>
